<svg xmlns="http://www.w3.org/2000/svg" xmlns:xlink="http://www.w3.org/1999/xlink" width="160.01" height="160" preserveAspectRatio="xMidYMid meet" version="1.1" viewBox="76.59 44 164.008 164"><defs><path id="arNRoK435" d="M237.6 95L187.6 95L187.6 45L237.6 45L237.6 95Z"/><path id="a3H2WU7Px" d="M182.59 95L132.59 95L132.59 45L182.59 45L182.59 95Z"/><path id="b1DInM56vl" d="M127.59 95L77.59 95L77.59 45L127.59 45L127.59 95Z"/><path id="a7LFlgQIwu" d="M237.6 150L187.6 150L187.6 100L237.6 100L237.6 150Z"/><path id="amwLiZcuo" d="M182.59 150L132.59 150L132.59 100L182.59 100L182.59 150Z"/><path id="f3Peu5RWan" d="M182.59 205L132.59 205L132.59 155L182.59 155L182.59 205Z"/><path id="a6DXBfqPa" d="M237.6 205L187.6 205L187.6 155L237.6 155L237.6 205Z"/><path id="c1GWSTH1z7" d="M127.59 205L77.59 205L77.59 155L127.59 155L127.59 205Z"/></defs><g><g><use fill="#f9ad00" fill-opacity="1" opacity="1" xlink:href="#arNRoK435"/></g><g><use fill="#f9ad00" fill-opacity="1" opacity="1" xlink:href="#a3H2WU7Px"/></g><g><use fill="#f9ad00" fill-opacity="1" opacity="1" xlink:href="#b1DInM56vl"/></g><g><use fill="#f9ad00" fill-opacity="1" opacity="1" xlink:href="#a7LFlgQIwu"/></g><g><use fill="#4e4e4e" fill-opacity="1" opacity="1" xlink:href="#amwLiZcuo"/></g><g><use fill="#4e4e4e" fill-opacity="1" opacity="1" xlink:href="#f3Peu5RWan"/></g><g><use fill="#4e4e4e" fill-opacity="1" opacity="1" xlink:href="#a6DXBfqPa"/></g><g><use fill="#4e4e4e" fill-opacity="1" opacity="1" xlink:href="#c1GWSTH1z7"/></g></g></svg>